HIERARCHY
ROOT Hips
{
	OFFSET -3.958830 18.904000 13.208200
	CHANNELS 6 Xposition Yposition Zposition Zrotation Yrotation Xrotation 
	JOINT LHipJoint
	{
		OFFSET 0.000000 0.000000 0.000000
		CHANNELS 3 Zrotation Yrotation Xrotation
		JOINT LeftUpLeg
		{
			OFFSET 1.800000 -1.400000 0.085000
			CHANNELS 3 Zrotation Yrotation Xrotation
			JOINT LeftLeg
			{
				OFFSET 2.215000 -6.000000 0.000000
				CHANNELS 3 Zrotation Yrotation Xrotation
				JOINT LeftFoot
				{
					OFFSET 2.500000 -6.900000 0.000000
					CHANNELS 3 Zrotation Yrotation Xrotation
					JOINT LeftToeBase
					{
						OFFSET 0.200000 -0.500000 1.950000
						CHANNELS 3 Zrotation Yrotation Xrotation
						End Site
						{
							OFFSET 0.000000 0.000000 0.000000
						}
					}
				}
			}
		}
	}
	JOINT RHipJoint
	{
		OFFSET 0.000000 0.000000 0.000000
		CHANNELS 3 Zrotation Yrotation Xrotation
		JOINT RightUpLeg
		{
			OFFSET -1.800000 -1.400000 0.085000
			CHANNELS 3 Zrotation Yrotation Xrotation
			JOINT RightLeg
			{
				OFFSET -2.215000 -6.000000 0.000000
				CHANNELS 3 Zrotation Yrotation Xrotation
				JOINT RightFoot
				{
					OFFSET -2.500000 -6.900000 0.000000
					CHANNELS 3 Zrotation Yrotation Xrotation
					JOINT RightToeBase
					{
						OFFSET -0.200000 -0.500000 1.950000
						CHANNELS 3 Zrotation Yrotation Xrotation
						End Site
						{
							OFFSET 0.000000 0.000000 0.000000
						}
					}
				}
			}
		}
	}
	JOINT LowerBack
	{
		OFFSET 0.000000 0.000000 0.000000
		CHANNELS 3 Zrotation Yrotation Xrotation
		JOINT Spine
		{
			OFFSET -0.087000 1.940000 -0.288900
			CHANNELS 3 Zrotation Yrotation Xrotation
			JOINT Spine1
			{
				OFFSET 0.000000 1.950000 0.060000
				CHANNELS 3 Zrotation Yrotation Xrotation
				JOINT Neck
				{
					OFFSET 0.000000 0.000000 0.000000
					CHANNELS 3 Zrotation Yrotation Xrotation
					JOINT Neck1
					{
						OFFSET 0.000000 1.600000 0.340000
						CHANNELS 3 Zrotation Yrotation Xrotation
						JOINT Head
						{
							OFFSET 0.000000 1.667000 -0.240000
							CHANNELS 3 Zrotation Yrotation Xrotation
							End Site
							{
								OFFSET 0.000000 0.000000 0.000000
							}
						}
					}
				}
				JOINT LeftShoulder
				{
					OFFSET 0.000000 0.000000 0.000000
					CHANNELS 3 Zrotation Yrotation Xrotation
					JOINT LeftArm
					{
						OFFSET 2.700000 1.550000 -0.730000
						CHANNELS 3 Zrotation Yrotation Xrotation
						JOINT LeftForeArm
						{
							OFFSET 5.450000 0.000000 0.000000
							CHANNELS 3 Zrotation Yrotation Xrotation
							JOINT LeftHand
							{
								OFFSET 3.450000 0.000000 0.000000
								CHANNELS 3 Zrotation Yrotation Xrotation
								JOINT LeftHandIndex1
								{
									OFFSET 0.750000 0.000000 0.000000
									CHANNELS 3 Zrotation Yrotation Xrotation
									End Site
									{
										OFFSET 0.000000 0.000000 0.000000
									}
								}
							}
						}
					}
				}
				JOINT RightShoulder
				{
					OFFSET 0.000000 0.000000 0.000000
					CHANNELS 3 Zrotation Yrotation Xrotation
					JOINT RightArm
					{
						OFFSET -2.700000 1.550000 -0.730000
						CHANNELS 3 Zrotation Yrotation Xrotation
						JOINT RightForeArm
						{
							OFFSET -5.450000 0.000000 0.000000
							CHANNELS 3 Zrotation Yrotation Xrotation
							JOINT RightHand
							{
								OFFSET -3.450000 0.000000 0.000000
								CHANNELS 3 Zrotation Yrotation Xrotation
								JOINT RightHandIndex1
								{
									OFFSET -0.750000 0.000000 0.000000
									CHANNELS 3 Zrotation Yrotation Xrotation
									End Site
									{
										OFFSET 0.000000 0.000000 0.000000
									}
								}
							}
						}
					}
				}
			}
		}
	}
}
MOTION
Frames: 6
Frame Time: 0.016667
-0.915440 16.406680 -2.127130 -7.499035 -1.107027 -1.625045 -15.891114 13.574727 3.757173 -4.618112 -6.548385 -2.114527 -18.183070 10.506659 25.687340 0.328031 7.631087 2.124649 -0.162910 -0.386720 -0.183950 17.797441 -8.221986 3.611091 1.724857 -0.764550 -44.362396 28.020553 -22.055547 37.628616 -1.318060 -8.239656 1.438837 -0.235510 0.689940 0.338650 -1.868636 -6.991000 -8.521705 -0.570237 -14.082003 13.437823 1.857297 -14.184182 12.520266 0.717090 -2.957868 -14.253953 -12.766218 10.614276 43.975902 0.356240 6.380350 -5.478710 7.653178 -4.678518 3.914398 19.393893 1.344118 0.695774 24.080128 -24.122944 -3.167456 -4.152566 3.069478 0.677800 0.227970 0.053510 0.200970 -8.091813 1.870751 10.374619 -3.905839 -33.556268 -0.494891 -6.498257 7.022915 0.052798 2.407985 -0.786267 -0.405470 0.418630 0.339810 0.035020 
-0.918260 16.373540 -1.939670 -6.670601 -5.153684 0.736141 -15.818580 13.448040 3.537995 -7.474417 -4.881892 -2.241642 -13.603318 9.489715 26.664407 0.272411 7.148185 2.300715 -0.124690 -0.295520 -0.241400 17.933204 -8.237118 3.656951 2.704697 0.695349 -43.288495 30.064845 -20.106690 33.030730 -1.155067 -7.545036 1.679884 -0.185390 0.763310 0.414130 -2.170529 -6.534559 -8.112499 2.319228 -13.670520 8.414653 1.417854 -13.847763 13.916540 -0.015217 -2.879928 -13.375381 -11.570576 9.861417 40.858692 -0.933390 6.370070 -4.257840 9.382131 -3.179804 3.108226 19.796980 1.213335 2.045754 9.563482 -19.884104 -0.461645 -3.922052 3.365175 0.542290 0.328230 0.017930 0.267940 -8.854201 0.395876 10.352983 -1.683868 -29.272037 -0.981380 -8.234273 7.753016 -0.065909 2.417818 -0.987707 -0.334260 0.373460 0.312760 0.108840 
-0.901940 16.375260 -1.768490 -6.792079 -10.601028 1.563688 -15.607444 13.184422 3.390437 -9.444858 -2.899703 -0.109093 -10.732288 8.783560 25.593063 0.211038 6.849464 2.493149 -0.138530 -0.308830 -0.237110 18.176474 -8.465667 3.683916 4.308133 2.482851 -40.531688 30.162890 -18.455879 31.008538 -1.023015 -7.134933 1.869195 -0.146280 0.862340 0.403650 -2.857065 -5.534461 -7.801363 7.718543 -12.024202 6.521909 -0.540759 -12.119816 14.526599 0.091579 -2.572718 -12.437147 -9.850479 9.158506 38.581543 -3.986500 7.851460 -1.407290 9.560892 -1.832451 2.698281 17.637492 -0.103816 2.491698 3.187146 -17.090040 0.335508 -3.839129 3.372452 0.459600 0.442140 -0.055070 0.328230 -9.727203 -1.347395 9.994249 2.176578 -26.397879 -1.903889 -7.452090 8.624780 -0.316562 2.363773 -1.078549 -0.396810 0.403930 0.260780 0.120470 
-0.855250 16.420440 -1.646820 -6.329407 -13.854632 2.132737 -15.542522 12.994490 3.391814 -10.541046 -2.525039 0.887939 -9.511581 8.722738 27.238052 0.145581 7.028799 2.397241 -0.068510 -0.225570 -0.174240 18.252949 -8.597388 3.705849 4.439100 3.561233 -38.983112 28.762665 -17.328406 30.880293 -0.984264 -6.906095 1.904298 -0.062690 0.839450 0.445700 -3.086400 -4.918438 -7.769126 9.662239 -9.929919 7.119273 0.718879 -10.379988 14.757587 -0.171787 -1.547318 -10.747718 -7.592292 7.530894 38.327548 -5.448280 7.317930 -4.616640 8.303820 -0.368803 1.664628 15.933897 -2.829259 2.968274 -2.163366 -16.796286 0.887139 -3.806998 3.434048 0.473180 0.462940 -0.032990 0.310460 -7.925494 -3.412321 8.677552 4.481527 -26.332462 -2.562602 -4.986888 11.690205 -0.415725 2.160045 -1.173606 -0.394640 0.420830 0.270560 0.088460 
-0.810070 16.462680 -1.522320 -5.298342 -17.500700 1.557708 -15.510541 12.982292 3.531929 -12.574737 -2.310025 1.856899 -6.441300 8.131144 30.246762 0.183670 7.240470 2.336927 -0.171420 -0.384790 -0.136490 18.266134 -8.694397 3.710013 4.567185 4.309581 -37.646274 25.149997 -16.851471 34.004192 -0.960680 -6.988194 1.878053 -0.158500 0.834780 0.456040 -3.145439 -4.744421 -7.944041 10.388860 -9.141470 10.279262 0.748196 -9.616094 13.615586 0.412618 -0.417671 -10.232826 -5.291983 6.947609 39.073123 -8.666910 9.349030 -4.607610 6.353125 -0.504812 1.671391 14.889659 -1.307588 3.035423 -8.557495 -14.645217 1.360339 -3.824149 3.342104 0.511550 0.485270 -0.031710 0.236080 -7.101768 -4.101623 7.778170 11.898096 -25.349577 -6.065496 -7.704235 19.618344 -0.458947 2.073235 -1.313728 -0.435940 0.420760 0.326590 0.029840 
-0.714730 16.499650 -1.370500 -5.054949 -19.880678 0.742606 -15.378290 13.001868 3.626382 -12.746728 -2.527792 3.242760 -5.295156 8.215850 33.471623 0.299470 7.640510 2.153124 -0.187320 -0.405020 -0.122630 18.362337 -8.872192 3.641870 4.117690 4.374858 -36.099736 21.812701 -16.678267 37.148068 -1.001146 -7.159540 1.787121 -0.202860 0.738550 0.469480 -3.480581 -4.541086 -8.017783 14.944536 -9.934543 15.176710 -0.849329 -9.554310 11.701231 0.906173 -2.012002 -9.881812 -8.102542 7.357052 37.822334 -10.966810 9.731410 -7.186570 5.430345 1.754063 2.208250 6.815172 1.031014 2.248168 -12.236310 -18.994223 2.000807 -3.819891 3.333809 0.554830 0.418880 0.019740 0.176400 -7.229655 -5.666708 6.758791 20.674607 -22.229708 -9.093926 -9.383344 20.960045 -0.723463 2.134005 -1.245415 -0.395410 0.369800 0.356700 0.007660 
